<?xml version="1.0" encoding="UTF-8"?>
<svg id="Capa_2" data-name="Capa 2" xmlns="http://www.w3.org/2000/svg" viewBox="0 0 125.98 110.94">
  <defs>
    <style>
      .cls-1 {
        fill: #3f3f3f;
        stroke-width: 0px;
      }
    </style>
  </defs>
  <g id="Layer_1" data-name="Layer 1">
    <g>
      <path class="cls-1" d="M23.23,49.81c1.13,0,2.17-.68,2.32-1.53.15-.84-.92,0-2.05,0s-1.9-.84-2.05,0c-.15.84.65,1.53,1.78,1.53Z"/>
      <path class="cls-1" d="M26.27,37.32c1.13,0,2.17-.68,2.32-1.53.15-.84-.92,0-2.05,0s-1.9-.84-2.05,0c-.15.84.65,1.53,1.78,1.53Z"/>
      <path class="cls-1" d="M29.3,24.82c1.13,0,2.17-.68,2.32-1.53.15-.84-.92,0-2.05,0s-1.9-.84-2.05,0c-.15.84.65,1.53,1.78,1.53Z"/>
      <path class="cls-1" d="M120.01,58.42c-.08-.29-.3-.56-.62-.78-3.66-14.01-8.7-33.52-11.74-45.31.12-.12.16-.26.13-.41l-2.97-11.29c-.09-.35-.74-.63-1.45-.63h-21.13c-.52,0-.97.15-1.14.39-.03.04-.03.08-.05.12h-17.71c-4.64,0-8.76-.02-12.37-.03-.01-.03-.01-.06-.03-.08-.17-.24-.63-.39-1.14-.39h-21.13c-.71,0-1.35.28-1.45.63l-.04.15c-3.95.55-5.25,1.9-5.89,5.25-.35,1.85-3.46,13.48-6.74,25.8-5.57,20.9-11.89,44.58-12.47,48.76-.2,1.47-.53,2.95-.87,4.51-1.17,5.3-2.5,11.31,1.39,17.67,4.4,7.2,9.19,8.16,25.9,8.16,3.38,0,7.3-.04,11.83-.09,6.19-.06,13.9-.14,23.01-.14h56.19c.65,0,1.27-.31,1.66-.83.39-.52.52-1.2.34-1.82l-5.84-20.42,1.71-5.13h6.94c1.1,0,1.82-.69,1.6-1.53l-5.93-22.55ZM102.24,9.98c.02-.14.02-.29-.02-.45-.29-1.25-2.43-2.24-4.8-2.24-.29,0-.56.02-.83.04l-1.04-.49c.35-.2.53-.47.47-.77-.12-.6-1.16-1.08-2.32-1.08-.58,0-1.09.12-1.44.31l-.64-.3c.06-.19.09-.39.05-.59-.22-1.28-2.42-2.3-4.93-2.3-.4,0-.77.03-1.13.08l-3.31-1.55h21.22l2.87,11.29-4.15-1.95ZM82.82,2.59l1.56.73c.26.12.61.19.95.19.11,0,.22,0,.33-.02.28-.04.55-.06.81-.06,1.8,0,3.38.74,3.53,1.65.02.14,0,.28-.04.42-.08.23.09.48.45.65l.64.3c.28.13.63.2.98.2s.67-.07.91-.2c.14-.08.33-.12.54-.12.35,0,.65.12.79.28-.05.1-.05.21,0,.32-.03.03-.06.07-.11.09-.47.27-.39.71.18.98l1.05.49c.28.13.64.21.99.21.09,0,.17,0,.26-.01.19-.02.38-.03.57-.03,1.63,0,3.1.69,3.29,1.55.02.1.03.2,0,.31-.04.24.16.48.52.65l4.16,1.96c.17.08.37.13.58.17,2.99,11.59,7.81,30.24,11.41,44.03-.16.06-.3.13-.42.23l-4.02,3.32c-.36.3-.45.73-.24,1.14.09.18.16.37.2.55.35,1.55-1.18,2.84-3.41,2.84-.26,0-.53-.02-.8-.06-.12-.02-.24-.03-.36-.03-.49,0-.93.14-1.23.39l-1.14.94c-.63.52-.48,1.37.35,1.9.24.15.39.35.43.57.08.45-.35.81-.97.81-.3,0-.6-.08-.83-.24-.42-.27-.92-.4-1.4-.4s-.94.13-1.27.4l-.74.61c-.42.35-.53.85-.28,1.33.15.3.26.6.3.88.31,1.95-1.6,3.57-4.28,3.57-.39,0-.81-.04-1.24-.12-.17-.03-.33-.05-.5-.05-.51,0-.99.15-1.32.43l-3.55,2.93h-48.86l-3.55-2.93c-.33-.28-.81-.43-1.32-.43-.16,0-.33.02-.5.05-.43.08-.85.12-1.24.12-2.68,0-4.6-1.62-4.28-3.57.05-.28.15-.58.3-.88.25-.48.14-.98-.28-1.33l-.74-.61c-.32-.27-.78-.4-1.27-.4s-.99.13-1.4.4c-.24.15-.53.24-.83.24-.62,0-1.05-.36-.97-.81.04-.22.19-.42.43-.57.83-.53.99-1.38.35-1.9l-1.14-.94c-.3-.25-.75-.39-1.23-.39-.12,0-.24,0-.36.03-.27.04-.54.06-.8.06-2.23,0-3.75-1.28-3.41-2.84.04-.18.11-.36.2-.55.21-.42.12-.84-.24-1.14l-4.02-3.32c-.28-.23-.71-.36-1.17-.36-.23,0-.47.03-.7.09-.71.19-1.27.63-1.4,1.13l-.7,2.67c-.93.33-1.86.78-2.72,1.38.81-3.13,1.69-6.48,2.61-9.94,2.51-3.13,7.31-3.47,9.13-3.48.07.3.2.58.41.83.52.62,1.39.97,2.39.97,1.75,0,3.31-1.06,3.55-2.41.1-.57-.05-1.13-.43-1.58-.52-.62-1.39-.97-2.39-.97-1.48,0-2.81.75-3.34,1.8-1.55-.02-5.63.15-8.67,2.34.87-3.29,1.76-6.65,2.65-9.97,2.36-3.05,6.92-3.47,8.86-3.5.07.3.2.59.41.83.52.62,1.39.97,2.39.97,1.75,0,3.31-1.06,3.55-2.41.1-.57-.05-1.13-.43-1.58-.52-.62-1.39-.97-2.39-.97-1.48,0-2.81.76-3.34,1.81-1.66,0-5.5.24-8.38,2.33.92-3.44,1.82-6.81,2.66-9.99,2.24-2.95,6.55-3.44,8.56-3.5.07.3.2.59.41.84.52.62,1.39.97,2.39.97,1.75,0,3.31-1.06,3.55-2.41.1-.57-.05-1.13-.43-1.58-.52-.62-1.39-.97-2.39-.97-1.49,0-2.83.76-3.35,1.82-1.73.02-5.35.31-8.07,2.32.99-3.73,1.89-7.12,2.64-9.98.82-1.13,1.93-1.91,3.1-2.44.19,1.07,1.37.74,1.72.74s.74-.08,1.04-.22l4.16-1.96c.36-.17.56-.41.52-.65-.02-.1-.01-.21,0-.31.19-.86,1.67-1.55,3.29-1.55.19,0,.38.01.57.03.09,0,.17.01.26.01.35,0,.71-.07.99-.21l1.05-.49c.57-.27.65-.71.18-.98-.14-.08-.2-.18-.18-.29.04-.22.43-.4.86-.4.21,0,.4.04.54.12.24.13.57.2.91.2s.69-.07.98-.2l.64-.3c.36-.17.53-.42.45-.65-.05-.14-.07-.29-.04-.42.15-.92,1.73-1.65,3.52-1.65.26,0,.54.02.81.06.11.01.22.02.33.02.34,0,.68-.07.95-.19l1.64-.77c3.97.02,8.56.04,13.88.04h19.49ZM119.96,108.82s-.04,0-.05,0l-25.39.12-25.39.02-25.39-.09c-8.46-.04-16.92-.14-25.39-.24,8.46-.1,16.92-.2,25.39-.24l25.39-.09,25.39.02,25.14.12-4.27-17.04,4.69,17.19c.03.1-.03.2-.13.23ZM7.95,64.94c.81-.95,1.83-1.64,2.91-2.13l-3.8,14.44,1.79-12.04-3.39,9.64c.65-2.7,1.51-6.09,2.49-9.9ZM17.82,61.77c-.13.26-.23.52-.3.79-.53,2.28,1.69,4.16,4.96,4.16.4,0,.79-.03,1.17-.08l1.13.95c-.61.39-1.05.93-1.17,1.52-.24,1.21.93,2.19,2.6,2.19.84,0,1.64-.25,2.25-.65l.74.62c-.21.39-.36.8-.43,1.23-.47,2.75,2.21,5.03,5.99,5.03.6,0,1.18-.06,1.75-.17l4.32,3.6H8.07l.77-3.04,4.96-19.5,4.01,3.35ZM3.4,95.02c.15,1.67.47,3.32.91,4.94.22.81.48,1.62.77,2.41.27.8.61,1.58.95,2.36-.96-1.42-1.67-2.99-2.24-4.61-.57-1.62-.92-3.32-1.09-5.03-.18-1.72-.09-3.46.25-5.15.28-1.71.98-3.31,1.78-4.8-.13.41-.27.81-.41,1.21l-.21.6c-.06.2-.1.41-.15.62l-.31,1.22-.18,1.25c-.2,1.66-.27,3.34-.08,5ZM113.52,87.58c-.22.61-.41,1.4-.57,2.32l-98.85.69,98.66.68c-.37,3.17-.35,7.41.36,11.49l-98.86.69,99.13.69c.17.78.36,1.54.58,2.29H12.07c-.18,0-.35-.01-.53-.02-.83-1-3.38-4.32-4.63-8.61l103.36-.68-103.7-.68c-.66-3.14-.51-6.69,1.51-10.18l25.49-.22,26.06-.3,26.06-.3,13.03-.15c4.34-.09,8.69.03,13.03-.38-4.34-.44-8.68-.36-13.03-.48l-13.03-.24-7.05-.13h36.05l-1.18,3.53ZM21.12,48.43c.17-.94,1.42-1.73,2.74-1.73.75,0,1.4.25,1.76.68.22.26.31.58.25.91-.17.94-1.42,1.73-2.74,1.73-.75,0-1.4-.25-1.76-.68-.22-.26-.31-.58-.25-.91ZM24.15,35.94c.17-.94,1.42-1.73,2.74-1.73.75,0,1.4.25,1.76.68.22.26.31.58.25.91-.17.94-1.42,1.73-2.74,1.73-.75,0-1.4-.25-1.76-.68-.22-.26-.31-.58-.25-.91ZM27.19,23.45h0c.17-.94,1.42-1.73,2.74-1.73.75,0,1.4.25,1.76.68.22.26.31.58.25.91-.17.94-1.42,1.73-2.74,1.73-.75,0-1.4-.25-1.76-.68-.22-.26-.31-.58-.25-.91ZM28.5.63h21.22l-3.31,1.55c-.36-.05-.74-.08-1.13-.08-2.51,0-4.72,1.02-4.93,2.3-.03.2-.01.4.05.59l-.64.3c-.35-.19-.85-.31-1.44-.31-1.16,0-2.2.48-2.32,1.08-.06.3.13.57.47.77l-1.05.49c-.26-.03-.54-.04-.83-.04-2.36,0-4.51,1-4.8,2.24-.04.15-.04.3-.02.45l-4.15,1.95,1.49-5.85,1.38-5.44ZM23.33,6.42c.12-.61.23-1.13.41-1.57l-.39,5.64,2.67-5.32-1.56,5.92c-.91.34-1.82.79-2.64,1.42.82-3.16,1.37-5.34,1.51-6.1ZM123.96,80.97h-32.78l4.32-3.6h0c.57.11,1.15.17,1.75.17.21,0,.42,0,.62-.02.05,0,.1,0,.14-.01h0c.2-.02.39-.04.58-.07h0s.06-.01.1-.02c0,0,0,0,0,0,.16-.03.31-.06.47-.09h0c.05-.01.11-.02.16-.04.17-.04.33-.09.48-.14.06-.02.11-.04.17-.06h0c.11-.04.21-.08.32-.12h0c.06-.03.13-.05.19-.08h0c.13-.06.25-.12.37-.18h0c.08-.04.15-.08.22-.12h0c.06-.03.12-.07.18-.11.14-.09.27-.18.39-.27,0,0,0,0,0,0,.03-.03.07-.05.1-.08.08-.06.15-.13.22-.19.02-.02.04-.04.07-.06.14-.13.26-.26.38-.4.01-.02.03-.03.04-.05,0,0,0,0,0,0,.06-.08.13-.16.18-.24h0c.54-.78.78-1.69.61-2.67-.07-.43-.22-.84-.43-1.23l.74-.62h0c.62.4,1.42.65,2.25.65,1.67,0,2.83-.99,2.6-2.19-.12-.6-.56-1.14-1.17-1.52l1.13-.95h0c.38.05.78.08,1.17.08,3.27,0,5.49-1.88,4.96-4.16-.06-.27-.16-.54-.3-.79l4.01-3.35h0s0,0,0,0l2.71,10.67,3.02,11.88h0Z"/>
      <path class="cls-1" d="M120.07,69.38l-5.51,1.83c-.77-.33-1.64-.53-2.54-.53-2.15,0-3.73,1.13-3.83,2.64l-4.22,1.4c-.84,2.07-3.38,3.54-6.61,3.54-.47,0-.95-.03-1.43-.1l-2.43,2.04h29.29l-2.71-10.83ZM112.16,71.38c1.92,0,3.75,1.15,4.07,2.58.33,1.45-1,2.64-2.97,2.64s-3.8-1.19-4.09-2.64c-.28-1.43,1.06-2.58,2.98-2.58Z"/>
      <path class="cls-1" d="M113.15,76.05c1.65,0,2.76-.99,2.49-2.21-.27-1.2-1.32,0-2.95,0s-3.19-1.2-2.95,0c.24,1.21,1.77,2.21,3.42,2.21Z"/>
      <path class="cls-1" d="M14.82,73.96c-.19.82.04,1.57.57,2.16l-5.5,1.51-.64,2.58h29.29l-2.43-2.04c-.49.07-.96.1-1.43.1-4.23,0-7.25-2.51-6.87-5.57l-3.98,1.1c.22-1.74-1.45-3.12-3.82-3.12s-4.76,1.46-5.18,3.27ZM15.79,73.96c.33-1.43,2.15-2.58,4.07-2.58s3.26,1.15,2.98,2.58c-.28,1.45-2.12,2.64-4.09,2.64s-3.3-1.19-2.97-2.64Z"/>
      <path class="cls-1" d="M18.87,76.05c1.65,0,3.18-.99,3.42-2.21.24-1.2-1.32,0-2.95,0s-2.68-1.2-2.95,0c-.27,1.21.84,2.21,2.49,2.21Z"/>
      <path class="cls-1" d="M104.2,5.93l-1.25-4.98h-19.07l1.88.88c.31-.03.62-.04.93-.04,2.14,0,4.08.65,5.04,1.59l3.17.65c.41.72,1.77,1.27,3.28,1.27.62,0,1.18-.1,1.63-.26l4.38.9ZM98.11,4.95c-1.34,0-2.53-.55-2.66-1.22-.13-.67.84-1.2,2.15-1.2s2.51.54,2.66,1.2c.15.67-.81,1.22-2.15,1.22Z"/>
      <path class="cls-1" d="M97.65,2.77c-1.11,0-1.91.45-1.8,1.01.11.56.9,0,2.02,0s2.14.56,2.02,0c-.13-.56-1.12-1.01-2.23-1.01Z"/>
      <path class="cls-1" d="M27.82,5.93l4.38-.9c.45.16,1.01.26,1.63.26,1.51,0,2.87-.55,3.28-1.27l3.17-.65c.96-.94,2.9-1.59,5.04-1.59.31,0,.62.01.93.04l1.88-.88h-19.07l-1.25,4.98ZM33.91,4.95c-1.34,0-2.3-.55-2.15-1.22.15-.67,1.34-1.2,2.66-1.2s2.28.54,2.15,1.2c-.13.67-1.33,1.22-2.66,1.22Z"/>
      <path class="cls-1" d="M34.37,2.77c-1.11,0-2.1.45-2.23,1.01-.13.56.9,0,2.02,0s1.9.56,2.02,0c.11-.56-.7-1.01-1.8-1.01Z"/>
      <path class="cls-1" d="M33.81,38.52c-.69,4.2-1.37,8.4-1.97,12.62-.62,4.21-1.15,8.44-1.59,12.69.97-4.15,1.86-8.32,2.66-12.51.82-4.18,1.56-8.37,2.28-12.57.7-4.2,1.38-8.4,1.98-12.62.62-4.21,1.15-8.44,1.59-12.69-.97,4.15-1.86,8.32-2.66,12.51-.82,4.18-1.55,8.37-2.28,12.57Z"/>
      <path class="cls-1" d="M96.23,38.75c.72,4.2,1.46,8.39,2.28,12.57.8,4.18,1.68,8.35,2.66,12.51-.44-4.24-.98-8.47-1.59-12.69-.6-4.22-1.28-8.42-1.97-12.62-.72-4.2-1.46-8.39-2.28-12.57-.8-4.18-1.69-8.35-2.66-12.51.44,4.24.97,8.47,1.59,12.69.6,4.22,1.28,8.42,1.98,12.62Z"/>
      <path class="cls-1" d="M50.35,36.27l14.84,8.73,14.84-8.73-14.84-8.08-14.84,8.08ZM65.19,44.43l-13.85-8.15,13.85-7.54,13.85,7.54-13.85,8.15Z"/>
      <path class="cls-1" d="M58.34,36.32c0,2.36,3.02,4.27,6.75,4.27s6.75-1.91,6.75-4.27-3.02-4.27-6.75-4.27-6.75,1.91-6.75,4.27ZM70.29,36.32c0,1.82-2.33,3.29-5.21,3.29s-5.21-1.47-5.21-3.29,2.33-3.29,5.21-3.29,5.21,1.47,5.21,3.29Z"/>
      <path class="cls-1" d="M64.72,26.77l-15.83,8.62-1.52.83v.69l17.32,10.19.5.29.5-.29,17.32-10.19v-.69l-1.52-.83-15.83-8.62-.47-.25-.47.25ZM81.01,36.25l-15.83,9.32-15.83-9.32,15.83-8.62,15.83,8.62Z"/>
      <path class="cls-1" d="M61.07,36.32c0,1.4,1.8,2.54,4.02,2.54s4.02-1.14,4.02-2.54-1.8-.06-4.02-.06-4.02-1.34-4.02.06Z"/>
      <path class="cls-1" d="M65.19,22.68l-.68.37-22.94,12.49-2.2,1.2,2.16,1.27,22.94,13.5.72.42.72-.42,22.94-13.5,2.16-1.27-2.2-1.2-22.94-12.49-.68-.37ZM65.19,50.29l-22.94-13.5,22.94-12.49,22.94,12.49-22.94,13.5Z"/>
      <path class="cls-1" d="M54.07,24.93l3.79-1.76c2.46-1.14,4.9-2.34,7.33-3.54,2.43,1.2,4.87,2.4,7.33,3.55l3.79,1.76c1.28.56,2.54,1.14,3.83,1.68-1.2-.7-2.43-1.36-3.64-2.04l-3.68-1.97c-2.46-1.31-4.94-2.56-7.43-3.81l-.19-.09-.19.09c-2.49,1.25-4.97,2.5-7.43,3.81l-3.68,1.97c-1.21.68-2.44,1.34-3.64,2.04,1.29-.54,2.55-1.12,3.83-1.68Z"/>
      <path class="cls-1" d="M79.36,48.49c-1.62.87-3.24,1.75-4.84,2.65-3.13,1.73-6.23,3.52-9.33,5.31-3.1-1.79-6.2-3.58-9.33-5.31-1.61-.9-3.22-1.77-4.84-2.65-1.63-.85-3.25-1.73-4.9-2.56,1.53,1.03,3.09,2,4.64,3,1.56.98,3.12,1.95,4.69,2.91,3.14,1.92,6.3,3.8,9.48,5.66l.26.15.26-.15c3.17-1.86,6.34-3.73,9.48-5.66,1.57-.96,3.13-1.93,4.69-2.91,1.55-1,3.11-1.97,4.64-3-1.65.82-3.26,1.71-4.9,2.56Z"/>
      <path class="cls-1" d="M46.28,74.18c-.79,0-1.43.41-1.43.91s.64.91,1.43.91,1.43-.41,1.43-.91-.64-.91-1.43-.91Z"/>
      <path class="cls-1" d="M55.91,74.18c-.79,0-1.43.41-1.43.91s.64.91,1.43.91,1.43-.41,1.43-.91-.64-.91-1.43-.91Z"/>
      <path class="cls-1" d="M65.53,74.18c-.79,0-1.43.41-1.43.91s.64.91,1.43.91,1.43-.41,1.43-.91-.64-.91-1.43-.91Z"/>
      <path class="cls-1" d="M75.16,74.18c-.79,0-1.43.41-1.43.91s.64.91,1.43.91,1.43-.41,1.43-.91-.64-.91-1.43-.91Z"/>
      <path class="cls-1" d="M84.78,74.18c-.79,0-1.43.41-1.43.91s.64.91,1.43.91,1.43-.41,1.43-.91-.64-.91-1.43-.91Z"/>
      <path class="cls-1" d="M52.59,4.93c.53,0,.96-.28.96-.61s-.43-.61-.96-.61-.96.27-.96.61.43.61.96.61Z"/>
      <path class="cls-1" d="M59.06,4.93c.53,0,.96-.28.96-.61s-.43-.61-.96-.61-.96.27-.96.61.43.61.96.61Z"/>
      <path class="cls-1" d="M65.53,4.93c.53,0,.96-.28.96-.61s-.43-.61-.96-.61-.96.27-.96.61.43.61.96.61Z"/>
      <path class="cls-1" d="M72,4.93c.53,0,.96-.28.96-.61s-.43-.61-.96-.61-.96.27-.96.61.43.61.96.61Z"/>
      <path class="cls-1" d="M78.48,4.93c.53,0,.96-.28.96-.61s-.43-.61-.96-.61-.96.27-.96.61.43.61.96.61Z"/>
      <path class="cls-1" d="M84.14,100.11c-8.2-.09-16.39-.08-24.59-.12-8.2.04-16.39.04-24.59.12l-12.29.15c-4.1.09-8.2.14-12.29.26,4.1.12,8.2.17,12.29.26l12.29.15c8.2.08,16.39.08,24.59.12,8.2-.04,16.39-.04,24.59-.12l12.29-.14c4.1-.09,8.2-.14,12.29-.25-4.1-.12-8.2-.17-12.29-.25l-12.29-.14Z"/>
      <path class="cls-1" d="M25.59,93.91l11.88.15c7.92.08,15.83.08,23.75.12,7.92-.04,15.84-.04,23.75-.12l11.88-.14c3.96-.09,7.92-.14,11.88-.25-3.96-.12-7.92-.17-11.88-.25l-11.88-.14c-7.92-.09-15.84-.08-23.75-.12-7.92.04-15.83.04-23.75.12l-11.88.15c-3.96.09-7.92.14-11.88.26,3.96.12,7.92.17,11.88.26Z"/>
      <path class="cls-1" d="M84.97,87.35c-7.92-.09-15.84-.08-23.75-.12-7.92.04-15.83.04-23.75.12l-11.88.15c-3.96.09-7.92.14-11.88.26,3.96.12,7.92.17,11.88.26l11.88.15c7.92.08,15.83.08,23.75.12,7.92-.04,15.84-.04,23.75-.12l11.88-.14c3.96-.09,7.92-.14,11.88-.25-3.96-.12-7.92-.17-11.88-.25l-11.88-.14Z"/>
    </g>
  </g>
</svg>